<?xml version="1.0" encoding="utf-8"?>
<!-- Generator: Adobe Illustrator 16.0.0, SVG Export Plug-In . SVG Version: 6.00 Build 0)  -->
<!DOCTYPE svg PUBLIC "-//W3C//DTD SVG 1.1//EN" "http://www.w3.org/Graphics/SVG/1.1/DTD/svg11.dtd">
<svg version="1.1" id="Layer_1" xmlns="http://www.w3.org/2000/svg" xmlns:xlink="http://www.w3.org/1999/xlink" x="0px" y="0px"
	 viewBox="0 0 775 186.438" enable-background="new 0 0 775 186.438" xml:space="preserve">
<g id="Rectangle_1_1_">
	<g id="Rectangle_1">
		<rect y="0" fill="#EB7670" width="775" height="186.438"/>
	</g>
</g>
<g id="Responsivize_1_">
	<g id="Responsivize">
		<path fill="#FFFFFF" d="M91.109,100.679c1.063-0.664,2.196-1.547,3.394-2.645c1.198-1.099,2.312-2.41,3.344-3.941
			c1.031-1.529,1.88-3.309,2.546-5.339c0.665-2.028,0.999-4.373,0.999-7.034c0-4.456-0.883-8.133-2.646-11.026
			c-1.764-2.894-4.077-5.188-6.938-6.885c-2.862-1.697-6.074-2.877-9.634-3.543c-3.561-0.664-7.172-0.998-10.832-0.998
			c-3.129,0-5.974,0.117-8.536,0.351s-5.308,0.516-8.236,0.849v71.744c1.331,0.2,2.628,0.332,3.894,0.398
			c1.263,0.065,2.461,0.101,3.594,0.101c1.131,0,2.296-0.05,3.494-0.149c1.198-0.1,2.396-0.217,3.594-0.35V71.642
			c1.198-0.2,2.529-0.3,3.993-0.3c3.794,0,6.889,0.982,9.284,2.943c2.396,1.963,3.594,5.039,3.594,9.229
			c0,2.13-0.434,3.977-1.298,5.538c-0.866,1.563-1.914,2.895-3.145,3.991c-1.232,1.098-2.513,2.013-3.844,2.744
			c-1.332,0.731-2.463,1.331-3.394,1.796l-2.396,1.197l18.768,33.327c2.461,0.399,4.957,0.6,7.487,0.6
			c1.53,0,3.028-0.066,4.492-0.199c1.463-0.135,2.861-0.267,4.193-0.399l-17.47-30.334L91.109,100.679z M131.939,119.837v-18.959
			h20.765c0.399-2.062,0.599-4.156,0.599-6.286c0-1.996-0.2-4.057-0.599-6.187h-20.765V72.839h26.155
			c0.399-1.996,0.599-4.092,0.599-6.287c0-2.061-0.2-4.091-0.599-6.086h-40.731v71.744h41.43c0.399-1.995,0.599-4.091,0.599-6.286
			c0-2.062-0.2-4.091-0.599-6.087H131.939z M212.75,96.637c-1.432-1.562-3.179-2.876-5.241-3.941
			c-2.063-1.062-4.359-2.095-6.888-3.093l-5.99-2.295c-0.999-0.398-1.997-0.813-2.995-1.248c-0.998-0.432-1.896-0.963-2.695-1.596
			c-0.798-0.632-1.432-1.397-1.896-2.296c-0.467-0.897-0.699-2.011-0.699-3.343c0-1.661,0.3-3.01,0.899-4.041
			c0.599-1.03,1.363-1.812,2.296-2.346c0.931-0.53,1.979-0.897,3.145-1.098c1.164-0.199,2.312-0.299,3.444-0.299
			c1.862,0,3.527,0.084,4.991,0.249c1.463,0.167,2.778,0.384,3.943,0.647c1.164,0.268,2.262,0.6,3.294,0.998
			c1.031,0.399,2.046,0.798,3.045,1.197c1.73-3.725,2.795-7.517,3.195-11.375c-3.262-1.131-6.374-1.996-9.334-2.595
			c-2.962-0.6-6.14-0.898-9.534-0.898c-3.728,0-7.088,0.449-10.083,1.349c-2.995,0.896-5.558,2.229-7.687,3.99
			c-2.13,1.765-3.778,3.941-4.941,6.536c-1.165,2.594-1.747,5.588-1.747,8.98c0,2.794,0.35,5.188,1.048,7.185
			c0.699,1.995,1.68,3.709,2.945,5.139c1.264,1.433,2.795,2.661,4.592,3.692c1.797,1.031,3.826,1.979,6.09,2.844l6.089,2.295
			c1.198,0.467,2.362,0.947,3.494,1.446c1.131,0.499,2.146,1.115,3.045,1.847c0.898,0.732,1.63,1.632,2.196,2.693
			c0.564,1.065,0.849,2.396,0.849,3.992c0,3.191-1.198,5.572-3.594,7.134c-2.396,1.564-5.69,2.346-9.883,2.346
			c-2.795,0-5.425-0.281-7.887-0.849c-2.463-0.564-5.091-1.412-7.887-2.544c-0.733,2.129-1.365,4.24-1.897,6.336
			c-0.533,2.096-0.898,4.108-1.098,6.037c1.663,0.665,3.26,1.23,4.792,1.696c1.53,0.466,3.078,0.848,4.642,1.146
			c1.563,0.299,3.21,0.516,4.942,0.648c1.729,0.133,3.693,0.198,5.89,0.198c4.458,0,8.401-0.564,11.83-1.695
			c3.427-1.13,6.305-2.693,8.635-4.689c2.329-1.996,4.109-4.391,5.341-7.185c1.229-2.794,1.847-5.889,1.847-9.28
			c0-3.258-0.399-6.002-1.198-8.23C215.296,100.097,214.181,98.201,212.75,96.637z M268.455,64.008
			c-2.762-1.829-5.857-3.076-9.284-3.742c-3.428-0.664-6.806-0.998-10.133-0.998c-3.194,0-6.356,0.085-9.484,0.25
			c-3.129,0.167-6.224,0.384-9.284,0.648v72.044c1.331,0.2,2.628,0.332,3.894,0.398c1.264,0.065,2.429,0.101,3.494,0.101
			c1.131,0,2.296-0.034,3.494-0.101c1.198-0.066,2.429-0.198,3.693-0.398v-23.05c0.665,0.066,1.381,0.116,2.146,0.148
			c0.764,0.034,1.58,0.05,2.446,0.05c3.26,0,6.572-0.332,9.933-0.998c3.36-0.663,6.405-1.928,9.135-3.791
			c2.728-1.861,4.957-4.405,6.688-7.634c1.73-3.226,2.596-7.434,2.596-12.623c0-5.188-0.866-9.412-2.596-12.672
			C273.462,68.383,271.216,65.838,268.455,64.008z M261.716,90.551c-0.733,1.63-1.714,2.943-2.945,3.941
			c-1.232,0.997-2.645,1.713-4.243,2.145c-1.597,0.434-3.229,0.649-4.892,0.649h-2.545c-0.699,0-1.448-0.065-2.247-0.2V71.642
			c1.198-0.133,2.112-0.216,2.746-0.25c0.632-0.032,1.313-0.05,2.046-0.05c1.663,0,3.294,0.217,4.892,0.648
			c1.598,0.434,3.011,1.165,4.243,2.194c1.231,1.032,2.212,2.396,2.945,4.091c0.731,1.697,1.098,3.776,1.098,6.237
			C262.814,86.908,262.448,88.921,261.716,90.551z M343.876,69.845c-2.53-3.325-5.757-5.92-9.684-7.783
			c-3.928-1.86-8.585-2.794-13.976-2.794c-5.391,0-10.05,0.934-13.977,2.794c-3.928,1.863-7.155,4.458-9.684,7.783
			c-2.53,3.327-4.41,7.27-5.64,11.825c-1.232,4.557-1.847,9.496-1.847,14.816c0,5.323,0.615,10.229,1.847,14.72
			c1.23,4.489,3.11,8.382,5.64,11.675c2.529,3.292,5.756,5.871,9.684,7.732c3.926,1.861,8.585,2.794,13.977,2.794
			c5.391,0,10.048-0.933,13.976-2.794c3.926-1.861,7.153-4.44,9.684-7.732c2.528-3.293,4.408-7.186,5.641-11.675
			c1.23-4.49,1.847-9.396,1.847-14.72c0-5.32-0.616-10.261-1.847-14.816C348.284,77.113,346.404,73.172,343.876,69.845z
			 M320.216,121.234c-10.382,0-15.574-8.248-15.574-24.747c0-16.496,5.224-24.745,15.673-24.745c5.257,0,9.135,2.062,11.63,6.187
			c2.496,4.125,3.744,10.312,3.744,18.56C335.69,112.986,330.531,121.234,320.216,121.234z M405.771,60.466v45.701l-27.753-45.701
			c-2.13-0.399-4.193-0.6-6.189-0.6c-1.864,0-3.828,0.199-5.89,0.6v71.744c2.062,0.398,4.193,0.599,6.389,0.599
			c2.196,0,4.358-0.199,6.489-0.599V86.608l27.953,45.603c2.195,0.398,4.226,0.599,6.09,0.599c1.729,0,3.658-0.199,5.79-0.599
			V60.466c-1.932-0.399-3.929-0.6-5.989-0.6C410.463,59.866,408.166,60.066,405.771,60.466z M475.003,96.637
			c-1.432-1.562-3.179-2.876-5.241-3.941c-2.062-1.062-4.358-2.095-6.889-3.093l-5.989-2.295c-0.998-0.398-1.997-0.813-2.995-1.248
			c-0.998-0.432-1.896-0.963-2.694-1.596c-0.8-0.632-1.433-1.397-1.896-2.296c-0.467-0.897-0.699-2.011-0.699-3.343
			c0-1.661,0.3-3.01,0.898-4.041c0.6-1.03,1.363-1.812,2.297-2.346c0.931-0.53,1.979-0.897,3.146-1.098
			c1.162-0.199,2.312-0.299,3.442-0.299c1.863,0,3.527,0.084,4.992,0.249c1.463,0.167,2.777,0.384,3.942,0.647
			c1.164,0.268,2.263,0.6,3.295,0.998c1.03,0.399,2.047,0.798,3.045,1.197c1.729-3.725,2.796-7.517,3.193-11.375
			c-3.262-1.131-6.373-1.996-9.334-2.595c-2.962-0.6-6.14-0.898-9.532-0.898c-3.729,0-7.089,0.449-10.084,1.349
			c-2.994,0.896-5.558,2.229-7.688,3.99c-2.13,1.765-3.778,3.941-4.94,6.536c-1.166,2.594-1.748,5.588-1.748,8.98
			c0,2.794,0.351,5.188,1.05,7.185c0.698,1.995,1.68,3.709,2.943,5.139c1.265,1.433,2.796,2.661,4.594,3.692
			c1.797,1.031,3.825,1.979,6.09,2.844l6.089,2.295c1.198,0.467,2.362,0.947,3.494,1.446c1.131,0.499,2.146,1.115,3.045,1.847
			c0.897,0.732,1.63,1.632,2.195,2.693c0.564,1.065,0.85,2.396,0.85,3.992c0,3.191-1.198,5.572-3.594,7.134
			c-2.396,1.564-5.69,2.346-9.885,2.346c-2.795,0-5.425-0.281-7.887-0.849c-2.463-0.564-5.091-1.412-7.887-2.544
			c-0.732,2.129-1.364,4.24-1.896,6.336s-0.897,4.108-1.098,6.037c1.662,0.665,3.26,1.23,4.791,1.696s3.078,0.848,4.643,1.146
			c1.562,0.299,3.211,0.516,4.941,0.648s3.694,0.198,5.891,0.198c4.458,0,8.401-0.564,11.83-1.695
			c3.428-1.13,6.306-2.693,8.635-4.689c2.33-1.996,4.109-4.391,5.342-7.185c1.231-2.794,1.847-5.889,1.847-9.28
			c0-3.258-0.397-6.002-1.197-8.23C477.549,100.097,476.434,98.201,475.003,96.637z M492.521,60.466v71.744
			c2.462,0.398,4.926,0.599,7.389,0.599c2.328,0,4.757-0.199,7.287-0.599V60.466c-2.53-0.399-4.992-0.6-7.389-0.6
			C497.413,59.866,494.983,60.066,492.521,60.466z M572.585,59.967c-1.265,0-2.513,0.034-3.743,0.1
			c-1.231,0.066-2.514,0.199-3.844,0.399l-15.873,56.577l-15.674-56.577c-2.795-0.399-5.457-0.6-7.986-0.6
			c-1.133,0-2.43,0.066-3.894,0.199c-1.464,0.135-2.763,0.268-3.895,0.399l22.961,71.744c1.531,0.2,2.929,0.35,4.193,0.449
			c1.264,0.1,2.562,0.148,3.894,0.148c1.463,0,2.846-0.05,4.144-0.148c1.298-0.1,2.646-0.249,4.044-0.449l23.16-71.744
			c-1.332-0.2-2.613-0.333-3.844-0.399C574.996,60.001,573.783,59.967,572.585,59.967z M590.553,60.466v71.744
			c2.462,0.398,4.926,0.599,7.389,0.599c2.328,0,4.758-0.199,7.287-0.599V60.466c-2.529-0.399-4.991-0.6-7.388-0.6
			C595.445,59.866,593.015,60.066,590.553,60.466z M669.219,60.466H621.1c-0.397,1.995-0.599,4.091-0.599,6.286
			c0,2.062,0.2,4.091,0.599,6.087h27.555l-30.149,58.373l0.699,0.998h49.315c0.399-1.995,0.601-4.091,0.601-6.286
			c0-2.062-0.2-4.091-0.601-6.087h-28.352l29.85-58.174L669.219,60.466z M723.525,119.837H696.67v-18.959h20.766
			c0.398-2.062,0.6-4.156,0.6-6.286c0-1.996-0.2-4.057-0.6-6.187H696.67V72.839h26.156c0.398-1.996,0.599-4.092,0.599-6.287
			c0-2.061-0.198-4.091-0.599-6.086h-40.73v71.744h41.431c0.397-1.995,0.599-4.091,0.599-6.286
			C724.124,123.862,723.924,121.833,723.525,119.837z"/>
	</g>
</g>
</svg>
